<svg width="26" height="26" viewBox="0 0 26 26" fill="none" xmlns="http://www.w3.org/2000/svg">
<g clip-path="url(#clip0_27_168)">
<path d="M13.1083 20.0958L13 20.2042L12.8808 20.0958C7.73496 15.4267 4.33329 12.3392 4.33329 9.20833C4.33329 7.04167 5.95829 5.41667 8.12496 5.41667C9.79329 5.41667 11.4183 6.5 11.9925 7.97333H14.0075C14.5816 6.5 16.2066 5.41667 17.875 5.41667C20.0416 5.41667 21.6666 7.04167 21.6666 9.20833C21.6666 12.3392 18.265 15.4267 13.1083 20.0958ZM17.875 3.25C15.99 3.25 14.1808 4.1275 13 5.50333C11.8191 4.1275 10.01 3.25 8.12496 3.25C4.78829 3.25 2.16663 5.86083 2.16663 9.20833C2.16663 13.2925 5.84996 16.64 11.4291 21.6992L13 23.1292L14.5708 21.6992C20.15 16.64 23.8333 13.2925 23.8333 9.20833C23.8333 5.86083 21.2116 3.25 17.875 3.25Z" fill="black"/>
<path d="M13.1083 20.0958L13 20.2042L12.8808 20.0958C7.73496 15.4267 4.33329 12.3392 4.33329 9.20833C4.33329 7.04167 5.95829 5.41667 8.12496 5.41667C9.79329 5.41667 11.4183 6.5 11.9925 7.97333H14.0075C14.5816 6.5 16.2066 5.41667 17.875 5.41667C20.0416 5.41667 21.6666 7.04167 21.6666 9.20833C21.6666 12.3392 18.265 15.4267 13.1083 20.0958ZM17.875 3.25C15.99 3.25 14.1808 4.1275 13 5.50333C11.8191 4.1275 10.01 3.25 8.12496 3.25C4.78829 3.25 2.16663 5.86083 2.16663 9.20833C2.16663 13.2925 5.84996 16.64 11.4291 21.6992L13 23.1292L14.5708 21.6992C20.15 16.64 23.8333 13.2925 23.8333 9.20833C23.8333 5.86083 21.2116 3.25 17.875 3.25Z" fill="black"/>
</g>
<defs>
<clipPath id="clip0_27_168">
<rect width="26" height="26" fill="white"/>
</clipPath>
</defs>
</svg>
